<mxfile host="app.diagrams.net" modified="2022-05-12T11:38:07.367Z" agent="5.0 (Macintosh; Intel Mac OS X 10_15_7) AppleWebKit/537.36 (KHTML, like Gecko) Chrome/99.0.4844.51 Safari/537.36" etag="j8N5UJPZnL6P3GXjLGZ3" version="18.0.3" type="github">
  <diagram id="JRD2UFFAhzOgQMB7srHR" name="Page-1">
    <mxGraphModel dx="2066" dy="769" grid="1" gridSize="10" guides="1" tooltips="1" connect="1" arrows="1" fold="1" page="1" pageScale="1" pageWidth="850" pageHeight="1100" background="#F1FAEE" math="0" shadow="0">
      <root>
        <mxCell id="0" />
        <mxCell id="1" parent="0" />
        <mxCell id="zydS61gfEBJ_W_5xC2Sf-1" value="飞桨核心框架" style="rounded=1;whiteSpace=wrap;html=1;fillColor=#A8DADC;strokeColor=#457B9D;fontColor=#1D3557;sketch=1;" vertex="1" parent="1">
          <mxGeometry x="330" y="580" width="120" height="60" as="geometry" />
        </mxCell>
        <mxCell id="zydS61gfEBJ_W_5xC2Sf-2" value="&lt;h1&gt;Basic&lt;/h1&gt;&lt;p&gt;Build a basic module on single device&lt;/p&gt;" style="text;html=1;strokeColor=none;fillColor=none;spacing=5;spacingTop=-20;whiteSpace=wrap;overflow=hidden;rounded=1;fontColor=#1D3557;sketch=1;" vertex="1" parent="1">
          <mxGeometry x="110" y="580" width="190" height="80" as="geometry" />
        </mxCell>
        <mxCell id="zydS61gfEBJ_W_5xC2Sf-5" value="&lt;h1&gt;Bigger Or Faster&lt;/h1&gt;&lt;p&gt;Run model in a bigger or faster way&lt;/p&gt;" style="text;html=1;strokeColor=none;fillColor=none;spacing=5;spacingTop=-20;whiteSpace=wrap;overflow=hidden;rounded=1;fontColor=#1D3557;sketch=1;" vertex="1" parent="1">
          <mxGeometry x="680" y="570" width="230" height="80" as="geometry" />
        </mxCell>
        <mxCell id="zydS61gfEBJ_W_5xC2Sf-9" value="" style="group;fontColor=#1D3557;sketch=1;rounded=1;" vertex="1" connectable="0" parent="1">
          <mxGeometry x="520" y="570" width="140" height="80" as="geometry" />
        </mxCell>
        <mxCell id="zydS61gfEBJ_W_5xC2Sf-4" value="飞桨核心框架" style="rounded=1;whiteSpace=wrap;html=1;fillColor=#A8DADC;strokeColor=#457B9D;fontColor=#1D3557;sketch=1;" vertex="1" parent="zydS61gfEBJ_W_5xC2Sf-9">
          <mxGeometry x="20" width="120" height="60" as="geometry" />
        </mxCell>
        <mxCell id="zydS61gfEBJ_W_5xC2Sf-6" value="飞桨核心框架" style="rounded=1;whiteSpace=wrap;html=1;fillColor=#A8DADC;strokeColor=#457B9D;fontColor=#1D3557;sketch=1;" vertex="1" parent="zydS61gfEBJ_W_5xC2Sf-9">
          <mxGeometry x="10" y="10" width="120" height="60" as="geometry" />
        </mxCell>
        <mxCell id="zydS61gfEBJ_W_5xC2Sf-7" value="飞桨分布式技术" style="rounded=1;whiteSpace=wrap;html=1;fillColor=#A8DADC;strokeColor=#457B9D;fontColor=#1D3557;sketch=1;" vertex="1" parent="zydS61gfEBJ_W_5xC2Sf-9">
          <mxGeometry y="20" width="120" height="60" as="geometry" />
        </mxCell>
        <mxCell id="zydS61gfEBJ_W_5xC2Sf-24" style="edgeStyle=orthogonalEdgeStyle;rounded=1;orthogonalLoop=1;jettySize=auto;html=1;exitX=0.5;exitY=1;exitDx=0;exitDy=0;entryX=0.5;entryY=0;entryDx=0;entryDy=0;labelBackgroundColor=#F1FAEE;strokeColor=#457B9D;fontColor=#1D3557;sketch=1;curved=1;" edge="1" parent="1" source="zydS61gfEBJ_W_5xC2Sf-15" target="zydS61gfEBJ_W_5xC2Sf-1">
          <mxGeometry relative="1" as="geometry" />
        </mxCell>
        <mxCell id="zydS61gfEBJ_W_5xC2Sf-15" value="飞桨套件" style="rounded=1;whiteSpace=wrap;html=1;fillColor=#A8DADC;strokeColor=#457B9D;fontColor=#1D3557;sketch=1;" vertex="1" parent="1">
          <mxGeometry x="320" y="460" width="340" height="60" as="geometry" />
        </mxCell>
        <mxCell id="zydS61gfEBJ_W_5xC2Sf-16" value="&lt;h1&gt;Easier&amp;nbsp;&lt;/h1&gt;&lt;p&gt;Build a model from other model&lt;/p&gt;" style="text;html=1;strokeColor=none;fillColor=none;spacing=5;spacingTop=-20;whiteSpace=wrap;overflow=hidden;rounded=1;fontColor=#1D3557;sketch=1;" vertex="1" parent="1">
          <mxGeometry x="110" y="450" width="230" height="80" as="geometry" />
        </mxCell>
        <mxCell id="zydS61gfEBJ_W_5xC2Sf-17" value="飞桨组件" style="rounded=1;whiteSpace=wrap;html=1;fillColor=#A8DADC;strokeColor=#457B9D;fontColor=#1D3557;sketch=1;" vertex="1" parent="1">
          <mxGeometry x="320" y="380" width="340" height="60" as="geometry" />
        </mxCell>
        <mxCell id="zydS61gfEBJ_W_5xC2Sf-20" value="&lt;h1&gt;Analyzing or Modify&lt;/h1&gt;&lt;p&gt;Analyze and modify a model from other model&lt;/p&gt;" style="text;html=1;strokeColor=none;fillColor=none;spacing=5;spacingTop=-20;whiteSpace=wrap;overflow=hidden;rounded=1;fontColor=#1D3557;sketch=1;" vertex="1" parent="1">
          <mxGeometry x="100" y="350" width="260" height="80" as="geometry" />
        </mxCell>
        <mxCell id="zydS61gfEBJ_W_5xC2Sf-21" value="飞桨平台" style="rounded=1;whiteSpace=wrap;html=1;fillColor=#A8DADC;strokeColor=#457B9D;fontColor=#1D3557;sketch=1;" vertex="1" parent="1">
          <mxGeometry x="320" y="300" width="340" height="60" as="geometry" />
        </mxCell>
        <mxCell id="zydS61gfEBJ_W_5xC2Sf-22" value="&lt;h1&gt;Device and Integration&lt;/h1&gt;&lt;p&gt;Build model without own device and other module&lt;/p&gt;" style="text;html=1;strokeColor=none;fillColor=none;spacing=5;spacingTop=-20;whiteSpace=wrap;overflow=hidden;rounded=1;fontColor=#1D3557;sketch=1;" vertex="1" parent="1">
          <mxGeometry x="100" y="260" width="350" height="80" as="geometry" />
        </mxCell>
        <mxCell id="zydS61gfEBJ_W_5xC2Sf-23" style="edgeStyle=orthogonalEdgeStyle;rounded=1;orthogonalLoop=1;jettySize=auto;html=1;exitX=0;exitY=0.5;exitDx=0;exitDy=0;entryX=1;entryY=0.5;entryDx=0;entryDy=0;labelBackgroundColor=#F1FAEE;strokeColor=#457B9D;fontColor=#1D3557;sketch=1;curved=1;" edge="1" parent="1" source="zydS61gfEBJ_W_5xC2Sf-7" target="zydS61gfEBJ_W_5xC2Sf-1">
          <mxGeometry relative="1" as="geometry" />
        </mxCell>
      </root>
    </mxGraphModel>
  </diagram>
</mxfile>
